<svg width="26" height="26" viewBox="0 0 26 26" fill="none" xmlns="http://www.w3.org/2000/svg">
<path d="M16.125 25.5149C15.7253 25.5146 15.3362 25.3862 15.0148 25.1484L14.9633 25.1086L7.81797 19.2492H2.375C1.87772 19.2492 1.40081 19.0517 1.04917 18.7001C0.697544 18.3484 0.5 17.8715 0.5 17.3742V8.62501C0.5 8.12773 0.697544 7.65081 1.04917 7.29918C1.40081 6.94755 1.87772 6.75001 2.375 6.75001H7.81641L14.9617 0.890632L15.0133 0.850788C15.2926 0.645108 15.6235 0.520955 15.9692 0.492138C16.3149 0.463322 16.6619 0.530972 16.9714 0.687564C17.2809 0.844156 17.541 1.08355 17.7226 1.37912C17.9042 1.67468 18.0002 2.01483 18 2.36173V23.6383C18 24.1356 17.8025 24.6125 17.4508 24.9641C17.0992 25.3157 16.6223 25.5133 16.125 25.5133V25.5149ZM23 19.25C22.7868 19.2499 22.5772 19.1953 22.3911 19.0913C22.2049 18.9873 22.0485 18.8375 21.9366 18.656C21.8247 18.4745 21.7611 18.2674 21.7519 18.0544C21.7426 17.8414 21.7879 17.6296 21.8836 17.4391C22.625 15.9625 23.0008 14.4703 23.0008 13C23.0008 11.4875 22.6367 10.0375 21.8875 8.56798C21.744 8.27352 21.7217 7.93447 21.8256 7.6238C21.9295 7.31313 22.1512 7.05565 22.443 6.90678C22.7348 6.75791 23.0734 6.72954 23.3859 6.82777C23.6985 6.926 23.9599 7.14299 24.1141 7.43204C25.0469 9.26251 25.5 11.0836 25.5 13C25.5 14.8617 25.0312 16.7328 24.1172 18.5609C24.0132 18.7681 23.8536 18.9422 23.6563 19.0639C23.459 19.1856 23.2318 19.25 23 19.25Z" fill="black"/>
</svg>
